<mxfile host="app.diagrams.net" modified="2023-09-14T05:13:45.931Z" agent="Mozilla/5.0 (Windows NT 10.0; Win64; x64) AppleWebKit/537.36 (KHTML, like Gecko) Chrome/116.0.0.0 Safari/537.36" version="21.7.5" etag="aMN62LWLp-C4dX4iApxe" type="github">
  <diagram name="Page-1" id="I8Fzsu1Zlbdm7WYj0eni">
    <mxGraphModel>
      <root>
        <mxCell id="0" />
        <mxCell id="1" parent="0" />
      </root>
    </mxGraphModel>
  </diagram>
</mxfile>
